<svg viewBox="0 0 800 200" xmlns="http://www.w3.org/2000/svg">
  <defs>
    <linearGradient id="bgGradient" x1="0%" y1="0%" x2="100%" y2="100%">
      <stop offset="0%" style="stop-color:#0f172a;stop-opacity:1" />
      <stop offset="50%" style="stop-color:#1e293b;stop-opacity:1" />
      <stop offset="100%" style="stop-color:#334155;stop-opacity:1" />
    </linearGradient>
    <linearGradient id="santaGradient" x1="0%" y1="0%" x2="100%" y2="100%">
      <stop offset="0%" style="stop-color:#dc2626;stop-opacity:1" />
      <stop offset="100%" style="stop-color:#991b1b;stop-opacity:1" />
    </linearGradient>
    <filter id="glow">
      <feGaussianBlur stdDeviation="2" result="coloredBlur"/>
      <feMerge> 
        <feMergeNode in="coloredBlur"/>
        <feMergeNode in="SourceGraphic"/>
      </feMerge>
    </filter>
    <filter id="sparkle">
      <feGaussianBlur stdDeviation="1" result="coloredBlur"/>
      <feMerge> 
        <feMergeNode in="coloredBlur"/>
        <feMergeNode in="SourceGraphic"/>
      </feMerge>
    </filter>
  </defs>
  
  <!-- Background -->
  <rect width="800" height="200" fill="url(#bgGradient)"/>
  
  <!-- Network connections (animated) -->
  <g stroke="#10b981" stroke-width="2" opacity="0.7" fill="none">
    <!-- Main network lines -->
    <line x1="150" y1="80" x2="250" y2="60">
      <animate attributeName="opacity" values="0.3;0.8;0.3" dur="2s" repeatCount="indefinite"/>
    </line>
    <line x1="250" y1="60" x2="350" y2="100">
      <animate attributeName="opacity" values="0.5;1;0.5" dur="1.5s" repeatCount="indefinite"/>
    </line>
    <line x1="350" y1="100" x2="450" y2="70">
      <animate attributeName="opacity" values="0.4;0.9;0.4" dur="1.8s" repeatCount="indefinite"/>
    </line>
    <line x1="450" y1="70" x2="550" y2="110">
      <animate attributeName="opacity" values="0.6;1;0.6" dur="1.3s" repeatCount="indefinite"/>
    </line>
    <line x1="550" y1="110" x2="650" y2="90">
      <animate attributeName="opacity" values="0.3;0.7;0.3" dur="2.2s" repeatCount="indefinite"/>
    </line>
    
    <!-- Cross connections -->
    <line x1="150" y1="80" x2="350" y2="100">
      <animate attributeName="opacity" values="0.2;0.6;0.2" dur="2.5s" repeatCount="indefinite"/>
    </line>
    <line x1="250" y1="60" x2="450" y2="70">
      <animate attributeName="opacity" values="0.1;0.5;0.1" dur="3s" repeatCount="indefinite"/>
    </line>
    <line x1="350" y1="100" x2="550" y2="110">
      <animate attributeName="opacity" values="0.3;0.8;0.3" dur="1.7s" repeatCount="indefinite"/>
    </line>
    
    <!-- Reindeer cluster connections -->
    <line x1="450" y1="70" x2="470" y2="50">
      <animate attributeName="opacity" values="0.4;0.9;0.4" dur="1.1s" repeatCount="indefinite"/>
    </line>
    <line x1="450" y1="70" x2="480" y2="90">
      <animate attributeName="opacity" values="0.5;1;0.5" dur="1.4s" repeatCount="indefinite"/>
    </line>
    
    <!-- Elf chain connections -->
    <line x1="150" y1="80" x2="130" y2="100">
      <animate attributeName="opacity" values="0.6;1;0.6" dur="1.2s" repeatCount="indefinite"/>
    </line>
    <line x1="150" y1="80" x2="170" y2="100">
      <animate attributeName="opacity" values="0.4;0.8;0.4" dur="1.6s" repeatCount="indefinite"/>
    </line>
  </g>
  
  <!-- Network nodes -->
  <!-- Santa's main node -->
  <g transform="translate(400,40)">
    <circle cx="0" cy="0" r="12" fill="#dc2626" filter="url(#glow)"/>
    <circle cx="0" cy="0" r="8" fill="#ef4444"/>
    <text x="0" y="25" text-anchor="middle" fill="#f8fafc" font-family="monospace" font-size="10">SANTA:29800</text>
  </g>
  
  <!-- Reindeer nodes -->
  <g transform="translate(150,80)">
    <circle cx="0" cy="0" r="8" fill="#059669" filter="url(#glow)"/>
    <circle cx="0" cy="0" r="5" fill="#10b981"/>
    <text x="0" y="20" text-anchor="middle" fill="#f8fafc" font-family="monospace" font-size="8">REINDEER</text>
  </g>
  
  <g transform="translate(250,60)">
    <circle cx="0" cy="0" r="8" fill="#059669" filter="url(#glow)"/>
    <circle cx="0" cy="0" r="5" fill="#10b981"/>
  </g>
  
  <g transform="translate(350,100)">
    <circle cx="0" cy="0" r="8" fill="#059669" filter="url(#glow)"/>
    <circle cx="0" cy="0" r="5" fill="#10b981"/>
  </g>
  
  <g transform="translate(450,70)">
    <circle cx="0" cy="0" r="8" fill="#059669" filter="url(#glow)"/>
    <circle cx="0" cy="0" r="5" fill="#10b981"/>
  </g>
  
  <!-- Elf nodes -->
  <g transform="translate(550,110)">
    <circle cx="0" cy="0" r="8" fill="#7c3aed" filter="url(#glow)"/>
    <circle cx="0" cy="0" r="5" fill="#8b5cf6"/>
    <text x="0" y="20" text-anchor="middle" fill="#f8fafc" font-family="monospace" font-size="8">ELF CHAIN</text>
  </g>
  
  <g transform="translate(650,90)">
    <circle cx="0" cy="0" r="8" fill="#7c3aed" filter="url(#glow)"/>
    <circle cx="0" cy="0" r="5" fill="#8b5cf6"/>
  </g>
  
  <!-- Santa figure -->
  <g transform="translate(380,45)">
    <!-- Santa hat -->
    <path d="M5,-15 L15,-5 L20,-8 Q22,-10 20,-12 L8,-20 Q6,-22 4,-20 Z" fill="#dc2626"/>
    <circle cx="20" cy="-8" r="2" fill="white"/>
    
    <!-- Santa face -->
    <circle cx="0" cy="0" r="6" fill="#fbbf24"/>
    
    <!-- Santa beard -->
    <path d="M-6,2 Q-8,8 0,10 Q8,8 6,2" fill="white"/>
    
    <!-- Eyes -->
    <circle cx="-2" cy="-1" r="1" fill="black"/>
    <circle cx="2" cy="-1" r="1" fill="black"/>
  </g>
  
  <!-- Title -->
  <text x="400" y="170" text-anchor="middle" fill="#f1f5f9" font-family="monospace" font-size="24" font-weight="bold">
    SANTA'S DISTRIBUTED WORKSHOP
  </text>
  
  <!-- Subtitle -->
  <text x="400" y="190" text-anchor="middle" fill="#94a3b8" font-family="monospace" font-size="12">
    Multi-threaded Network Coordination • Python • PySyncObj
  </text>
  
  <!-- Data packets (animated) -->
  <g fill="#fbbf24" opacity="0.8">
    <circle cx="200" cy="70" r="2">
      <animateMotion dur="3s" repeatCount="indefinite" path="M0,0 L100,20 L200,-20"/>
    </circle>
    <circle cx="300" cy="80" r="2">
      <animateMotion dur="2.5s" repeatCount="indefinite" path="M0,0 L150,-10 L100,30"/>
    </circle>
    <circle cx="500" cy="90" r="2">
      <animateMotion dur="2s" repeatCount="indefinite" path="M0,0 L-100,10 L-50,-20"/>
    </circle>
  </g>
  
  <!-- Sparkles -->
  <g fill="#fbbf24" filter="url(#sparkle)">
    <circle cx="100" cy="30" r="1">
      <animate attributeName="opacity" values="0;1;0" dur="1.5s" repeatCount="indefinite"/>
    </circle>
    <circle cx="700" cy="50" r="1">
      <animate attributeName="opacity" values="1;0;1" dur="2s" repeatCount="indefinite"/>
    </circle>
    <circle cx="50" cy="150" r="1">
      <animate attributeName="opacity" values="0;1;0" dur="1.8s" repeatCount="indefinite"/>
    </circle>
    <circle cx="750" cy="170" r="1">
      <animate attributeName="opacity" values="1;0;1" dur="2.2s" repeatCount="indefinite"/>
    </circle>
  </g>
  
  <!-- Port numbers -->
  <text x="60" y="195" fill="#64748b" font-family="monospace" font-size="10">:8001 :8003 :8005</text>
  <text x="680" y="195" fill="#64748b" font-family="monospace" font-size="10">Threading • Locks • Clusters</text>
</svg>